<svg width="42" height="40" viewBox="0 0 42 40" fill="none" xmlns="http://www.w3.org/2000/svg">
<path d="M19.1103 0C24.1081 0 28.1842 3.98 28.1842 8.88V18.46H15.8946C15.0138 18.46 14.3174 19.14 14.3174 20C14.3174 20.84 15.0138 21.54 15.8946 21.54H28.1842V31.1C28.1842 36 24.1081 40 19.0694 40H9.09431C4.07605 40 0 36.02 0 31.12V8.9C0 3.98 4.09654 0 9.11479 0H19.1103ZM33.298 13.1004C33.9019 12.4804 34.8884 12.4804 35.4923 13.0804L41.3707 18.9004C41.6727 19.2004 41.8337 19.5804 41.8337 20.0004C41.8337 20.4004 41.6727 20.8004 41.3707 21.0804L35.4923 26.9004C35.1903 27.2004 34.7877 27.3604 34.4052 27.3604C34.0026 27.3604 33.5999 27.2004 33.298 26.9004C32.694 26.3004 32.694 25.3204 33.298 24.7204L36.519 21.5404L28.1842 21.54V18.46L36.519 18.4604L33.298 15.2804C32.694 14.6804 32.694 13.7004 33.298 13.1004Z" fill="white"/>
</svg>
