<svg width="35" height="40" viewBox="0 0 35 40" fill="none" xmlns="http://www.w3.org/2000/svg">
<path d="M12.5672 37.2399V31.1925C12.5672 29.6488 13.7112 28.3973 15.1223 28.3973H20.2808C20.9584 28.3973 21.6083 28.6918 22.0875 29.216C22.5667 29.7402 22.8359 30.4512 22.8359 31.1925V37.2399C22.8316 37.8817 23.0616 38.4988 23.475 38.9543C23.8883 39.4098 24.4508 39.666 25.0374 39.666H28.5568C30.2004 39.6706 31.7782 38.9596 32.942 37.6898C34.1057 36.42 34.7597 34.6958 34.7597 32.8977V15.6696C34.7597 14.2171 34.1712 12.8394 33.1527 11.9075L21.1807 1.44754C19.0981 -0.386444 16.1142 -0.327229 14.0939 1.58818L2.39497 11.9075C1.3284 12.8119 0.690926 14.1937 0.659424 15.6696V32.8801C0.659424 36.6278 3.43659 39.666 6.8624 39.666H10.3014C11.5199 39.666 12.5102 38.5905 12.519 37.2575L12.5672 37.2399Z" fill="#E1EAF4"/>
</svg>
